<?xml version="1.0" encoding="iso-8859-1"?>
<!-- Uploaded to: SVG Repo, www.svgrepo.com, Generator: SVG Repo Mixer Tools -->
<svg fill="#FFD369" height="800px" width="800px" version="1.1" id="Capa_1" xmlns="http://www.w3.org/2000/svg" xmlns:xlink="http://www.w3.org/1999/xlink" 
	 viewBox="0 0 470 470" xml:space="preserve">
<g>
	<circle cx="37.5" cy="302.5" r="7.5"/>
	<path d="M440,302.5c0-12.406-10.094-22.5-22.5-22.5S395,290.094,395,302.5s10.094,22.5,22.5,22.5S440,314.906,440,302.5z
		 M410,302.5c0-4.136,3.364-7.5,7.5-7.5s7.5,3.364,7.5,7.5s-3.364,7.5-7.5,7.5S410,306.636,410,302.5z"/>
	<path d="M122.5,302.5c0,53.762,43.738,97.5,97.5,97.5s97.5-43.738,97.5-97.5S273.762,205,220,205S122.5,248.738,122.5,302.5z
		 M212.5,221.889V295h-29.832c0.853-20.043,5.111-38.568,12.22-52.786C199.966,232.059,206.129,225.041,212.5,221.889z M212.5,310
		v73.111c-6.371-3.152-12.534-10.169-17.612-20.324c-7.109-14.218-11.367-32.743-12.22-52.786H212.5z M227.5,383.111V310h29.832
		c-0.853,20.043-5.111,38.567-12.221,52.785C240.034,372.941,233.871,379.959,227.5,383.111z M227.5,295v-73.111
		c6.371,3.152,12.534,10.17,17.611,20.325c7.11,14.218,11.367,32.742,12.221,52.785H227.5z M186.264,227.242
		c-10.581,16.282-17.541,40.266-18.617,67.758h-29.79C140.596,264.757,159.721,239.188,186.264,227.242z M137.856,310h29.79
		c1.077,27.491,8.037,51.476,18.617,67.758C159.721,365.811,140.596,340.243,137.856,310z M253.736,377.757
		c10.581-16.282,17.541-40.266,18.617-67.757h29.79C299.404,340.243,280.279,365.811,253.736,377.757z M302.144,295h-29.79
		c-1.077-27.491-8.037-51.476-18.617-67.757C280.279,239.189,299.404,264.757,302.144,295z"/>
	<path d="M190,180c4.142,0,7.5-3.357,7.5-7.5s-3.358-7.5-7.5-7.5H67.5c-4.142,0-7.5,3.357-7.5,7.5v260c0,4.143,3.358,7.5,7.5,7.5
		h305c4.143,0,7.5-3.357,7.5-7.5v-260c0-4.143-3.357-7.5-7.5-7.5H262.427c-4.143,0-7.5,3.357-7.5,7.5s3.357,7.5,7.5,7.5H365v245H75
		V180H190z"/>
	<path d="M421.591,135H292.427c-4.143,0-7.5,3.357-7.5,7.5s3.357,7.5,7.5,7.5h129.164C440.013,150,455,164.987,455,183.409v238.182
		C455,440.013,440.013,455,421.591,455H48.409C29.987,455,15,440.013,15,421.591V183.409C15,164.987,29.987,150,48.409,150H190
		c4.142,0,7.5-3.357,7.5-7.5s-3.358-7.5-7.5-7.5H48.409C21.716,135,0,156.716,0,183.409v238.182C0,448.284,21.716,470,48.409,470
		h373.182C448.284,470,470,448.284,470,421.591V183.409C470,156.716,448.284,135,421.591,135z"/>
	<path d="M462.5,0h-305c-4.142,0-7.5,3.357-7.5,7.5v105c0,4.143,3.358,7.5,7.5,7.5h55v52.5c0,3.033,1.827,5.769,4.63,6.929
		c0.928,0.385,1.902,0.571,2.869,0.571c1.952,0,3.87-0.762,5.305-2.196L283.106,120H462.5c4.143,0,7.5-3.357,7.5-7.5V7.5
		C470,3.357,466.643,0,462.5,0z M455,105H280c-1.989,0-3.896,0.79-5.304,2.196L227.5,154.394V112.5c0-4.143-3.358-7.5-7.5-7.5h-55
		V15h290V105z"/>
</g>
</svg>